<?xml version="1.0" encoding="UTF-8"?><svg id="Layer_2" xmlns="http://www.w3.org/2000/svg" viewBox="0 0 155.5 129.26"><defs><style>.cls-1{fill:#606060;}.cls-1,.cls-2,.cls-3,.cls-4,.cls-5,.cls-6,.cls-7,.cls-8,.cls-9{stroke:#000;stroke-miterlimit:10;}.cls-1,.cls-4{stroke-width:1.21px;}.cls-2,.cls-3,.cls-6,.cls-7{stroke-width:1.39px;}.cls-2,.cls-10{fill:#fff;}.cls-3{fill:none;}.cls-4{fill:#adadad;}.cls-5{fill:#7b88ff;}.cls-5,.cls-8{stroke-width:1.32px;}.cls-10,.cls-11{stroke-width:0px;}.cls-11,.cls-6{fill:#5e321c;}.cls-7{fill:#2d2d2d;}.cls-8{fill:#563a3a;}.cls-9{fill:#f49898;stroke-width:.95px;}</style></defs><g id="Layer_3"><path class="cls-4" d="m2.67,88.86C1.87,78.75-15.97,15.29,69.8,2.03c85.78-13.26,84.71,70.65,84.71,70.65L2.67,88.86Z"/><ellipse class="cls-1" cx="78.7" cy="77.7" rx="76.84" ry="34.38" transform="translate(-10.44 12.24) rotate(-8.34)"/><path class="cls-2" d="m29.03,88.75s-1.9,19.91,18.48,22.75c15.91,2.22,18.82,6.46,19.33,8.21.22.75.66,1.42,1.23,1.96,2.37,2.23,8.36,6.89,17.16,6.89,11.57,0,22-11.38,22-11.38,0,0,23.22-8.77,26.07-9.6s6.16-15.99,4.74-18.84-14.22-25.59-6.16-50.71c8.06-25.12-73.76-30.81-95.27-9.95-10.01,9.7.47,29.86.47,29.86,0,0,.95,22.28-8.06,30.81Z"/><path class="cls-6" d="m5.8,92.54s16.11,2.37,23.22-3.79,11.86-21.5,8.06-30.81c-3.76-9.21-9.89-20.68-.47-29.86,0,0-21.8-1.42-27.96,19.91-6.16,21.33-6.64,39.81-2.84,44.55Z"/><path class="cls-11" d="m138.32,92.54c-.23,1.71-25.28-3.55-32.74-2.67-7.46.89-11.2-25.42-6.22-44.97,4.98-19.55-19.2-29.53-19.2-29.53,0,0,37.88-1.32,49.78,12.68,0,0,3.7,3.31-.32,16.67-2.35,7.82,1.63,26.37,1.63,26.37,0,0,7.59,17.61,7.07,21.44Z"/><path class="cls-2" d="m43.9,74.59c.89.53,8.53,9.06,15.82,9.24s8.89-9.24,8.89-9.24c0,0-2.84-8.53-12.35-8.71-9.51-.18-12.35,8.71-12.35,8.71Z"/><path class="cls-5" d="m58,65.89c9.5-.38,12.35,8.71,12.35,8.71,0,0-1.6,9.42-8.89,9.24-2.28-.06-4.59-.93-6.72-2.11,0,0-5.69-15.48,3.25-15.84Z"/><path class="cls-2" d="m126.57,75.61c-.89.53-8.53,9.06-15.82,9.24-7.29.18-8.89-9.24-8.89-9.24,0,0,2.84-8.53,12.35-8.71,9.51-.18,12.35,8.71,12.35,8.71Z"/><path class="cls-8" d="m85.24,74.86s8.07-.98,8.25,4-1.42,9.06-7.46,9.24c-6.04.18-9.42-5.33-9.42-8.71s3.96-4.8,8.63-4.53Z"/><path class="cls-3" d="m81.13,86.82s-2.57,12.48-4.53,14.97"/><path class="cls-3" d="m89.57,87.36s-.19,7.6,4.79,13.64"/><path class="cls-7" d="m52.96,96.28s14.04,9.33,23.64,5.51c3.61-1.44,5.68-2.83,6.87-3.94.97-.9,2.45-.88,3.47-.05,2.18,1.79,6.71,3.99,15.79,3.99s16.35-1.6,16.35-1.6c0,0-13.51,14.93-33.68,14.75-20.17-.18-31.9-9.78-32.44-18.66Z"/><path class="cls-6" d="m138.04,88.75s5.21,8.53,12.32,0,1.57-50.58-18.65-56.81c0,0-9.31,37.85,6.33,56.81Z"/><path class="cls-5" d="m114.04,66.91c-9.5-.38-12.35,8.71-12.35,8.71,0,0,1.6,9.42,8.89,9.24,2.28-.06,4.59-.93,6.72-2.11,0,0,5.69-15.48-3.25-15.84Z"/><path class="cls-4" d="m73.71,43.69c41.99-6.16,78.26,4.08,81.02,22.86.3,2.03.17,4.08-.31,6.13h.1S155.58-11.23,69.8,2.03C-15.97,15.29,1.87,78.75,2.67,88.86-.08,70.07,31.72,49.85,73.71,43.69Z"/><path class="cls-10" d="m97.5,102.35s.34,2.01,0,3.26,1.28,0,1.28,0c0,0,1.36-1.98,1.19-3.26h-2.47Z"/><path class="cls-10" d="m72.16,103.34s-.34,2.01,0,3.26-1.28,0-1.28,0c0,0-1.36-1.98-1.19-3.26h2.47Z"/><path class="cls-9" d="m73.31,113.55s12.54,2.52,19.29.81-5.55-4.01-6.58-3.76-2.34-.02-2.34-.02c0,0-8.93.13-10.37,2.97Z"/></g></svg>